<svg version="1" xmlns="http://www.w3.org/2000/svg" width="800" height="800" viewBox="0 0 600.000000 600.000000"><path d="M277.1 46c-76.8 7.5-145.9 48.3-188.2 111.1l-5.8 8.7-13.8.4c-11.6.3-14.6.8-18.8 2.6-11.3 5.1-18.3 12.6-21.6 23.2-1.7 5.4-1.8 11.5-2 86.2-.2 86.6-.4 81.9 4.9 92.5 4.4 8.5 16 17 25.6 18.8 3.5.7 4.1 1.3 6 5.9 4.8 11.8 16 32.9 23.4 44.1 10 15.2 18.1 25.4 30.2 37.9 64.6 66.8 160.8 92.9 251.3 68.1 50.4-13.8 98.2-45.2 130.7-86 14.8-18.7 30.1-45.1 38.6-67 3-7.6 5.7-12.4 11.4-20 18.5-24.5 27.3-51.2 27.3-83 .1-38.3-14-71.9-40.5-97.1-5.8-5.5-9.5-10.1-12.2-14.9-24.8-45.5-64.3-83.1-111.1-106-25-12.3-48.3-19.6-74.7-23.6-15.4-2.3-46.4-3.2-60.7-1.9zM329 64.4c45.5 5.7 88.2 24.1 122.5 52.8 15.5 12.9 35.8 35.2 44 48l1.7 2.8-5.7-2c-7.2-2.5-20.4-5-26.1-5-4.1 0-4.7-.4-11.6-7.6-26.9-28.2-62.9-49.3-100.2-58.9-20.3-5.2-32.6-6.7-53.6-6.7s-33.3 1.5-53.6 6.7c-37.6 9.6-74.7 31.5-100.6 59.4-7 7.6-7.8 8.1-15.4 10.6-4.3 1.3-8.5 2.9-9.3 3.4-.9.6-2.4.5-4-.1-1.4-.5-4.9-1.2-7.8-1.6l-5.3-.7 6.7-9c8.4-11.2 25.9-29.4 37.8-39.3 34.4-28.8 78.1-47.5 124-53.1 11.6-1.4 44.1-1.2 56.5.3zm-8.2 41.7c36.9 4 73.3 19.2 102.2 42.6 4.1 3.4 9 7.7 10.9 9.7l3.4 3.5-2.9.6c-9.1 2.1-15.1 3.8-19.4 5.5-4.7 1.8-4.8 1.8-11.1-.1-5.9-1.9-8.7-2-33.4-1.7l-27.1.3-6.6 3.3c-7.5 3.6-14 9.7-17 15.6-1.1 2.3-2.2 4.3-2.4 4.5-.2.2-3.7-2.7-7.7-6.5-10.7-10.1-21.2-15.8-36.8-20.1-5.1-1.4-10.1-1.8-23.9-1.7-16 0-18.3.3-26.3 2.7-4.8 1.5-11.5 4.1-14.8 5.7l-5.9 3-8.3-3.9c-8.2-4-16-6.4-25-7.7l-4.8-.6 2.8-3c4.7-5 17.2-14.8 27.5-21.5 23.5-15.5 55.6-27 83.8-30.2 11-1.2 31.7-1.3 42.8 0zm-146.1 74.3c7.4 2 15.1 5.7 20.8 10.1l4.9 3.8 3.1-1.8c15.9-9.6 26.7-13.2 42-14.1 17.3-1 31.6 2.8 45.1 11.8 9.1 6.1 16.2 14.5 21.3 25.3 8.5 17.7 9.1 24.1 9.1 100 0 57.4-.1 61.2-1.8 64.5-4 7.4-13 8.8-19.5 3l-3.2-2.8-.5-68.4c-.6-74.2-.5-72.4-6.5-85.5-8.1-17.9-30.1-27-52.3-21.8-11.2 2.6-16.8 6.1-28.7 17.7-6 5.9-11 10.6-11.1 10.5 0-.1-2.5-3.9-5.3-8.4-10-15.7-18.6-20.7-35.6-20.7-19.3 0-25 4.2-43.1 31.3L101 253.4l-.2-22.4-.3-22.5-15.7-.3-15.8-.3V284h-2.7c-5.4 0-14.2 3.3-18.3 6.7l-4 3.5v-45.9c0-27.6.4-47.2 1-49.4 1.6-5.6 5.1-10.1 10-12.9 4.3-2.4 5.3-2.5 25.5-2.8 22.6-.4 31.2.5 35.7 3.8l2.8 2 5.2-2.9c5.9-3.3 13-5.8 20.4-7.1 6.5-1.2 23.6-.4 30.1 1.4zm306.4.9C526.9 193 559 237.5 559 289.1c0 20.3-3.6 36.4-12 53.5-15 30.7-42.1 51.8-73.4 57.3-7.6 1.4-26.2 1.4-34.6 0-5.5-.8-17.6-4.5-24.2-7.4-1.7-.7-1.8 1.1-1.8 29.9 0 34.1-.2 35-6.4 38-4.3 2-6.9 2-11.2 0-6.6-3.2-6.4-1-6.2-66.9l.3-59.5 12.9 14.6c18 20.4 26.2 25.3 46.4 27.3 37.2 3.8 69.7-19.9 81.9-59.6 2.4-8 2.7-10.3 2.7-25.8.1-14.7-.2-18.2-2.2-25.5-7.9-29.3-29.5-52.2-56.2-59.6-10-2.8-29.2-2.6-39 .5-13.8 4.2-19.7 8.9-39.3 31.3L389 246l-.2-18.8-.3-18.7-15.7-.3-15.8-.3v245.8l-2.1 2.7c-4.4 5.6-11 7-16.7 3.6-6.6-4-6.3 3.9-6-135.3l.3-126.2 2.5-4.5c1.6-2.8 4.3-5.5 7.4-7.5l4.9-3 21.8-.3c24.1-.4 30.2.3 36.2 4.5 3.4 2.4 4.1 2.5 6 1.3 6.7-4.1 22.5-9 33.7-10.4 8.5-1 26.7.4 36.1 2.7zM111.8 293.6c4.7 1.9 8.8 5.8 11.3 10.6 1.7 3.4 1.9 6.1 1.9 28.3 0 27-.3 28.7-6.7 34.7-5.6 5.3-8.2 5.8-33.1 5.8-14.5 0-24.2-.4-26.3-1.1-5.6-1.9-10-5.9-12.5-11.3-2.3-4.9-2.4-6-2.4-28.1s.1-23.2 2.4-28.1c2.5-5.3 6.9-9.4 12.1-11.2 1.7-.6 12.8-1.1 26.3-1.1 18.9-.1 24 .2 27 1.5zm166.5 78.5c.4 8 1 11.1 3.1 15.4 5 10 13.7 15.6 25.8 16.3l7.7.5.3 27.1c.3 25.9.4 27.3 2.6 31.3 2.8 5.4 8.1 10.7 13.5 13.5 3.9 2.1 5.9 2.3 24.7 2.8 12.7.3 19.7.8 18.5 1.4-1.1.4-6.5 2.3-11.9 4.2-71.4 24.3-150 5.2-202.6-49.2-13.7-14.2-25.8-30.8-32.6-44.7l-2.8-5.7 5-4.5c3.2-2.8 6.5-7 8.8-11.4l3.7-7.1h135.6l.6 10.1zm-166.4 26.6c11.1 22.1 30.8 46.5 51.1 63.5 31.1 26.1 66.7 42 107.5 48.3 14.9 2.3 44.1 2.3 59 0 57.3-8.8 106-37.6 140.3-83l7.5-10 8.1-2.2c4.5-1.2 11.9-3.8 16.6-5.8 4.7-2 9.1-3.9 9.9-4.2 2-.9-6.7 14.9-15 27.3-8.7 12.9-14.8 20.5-26.8 32.8-33.7 34.5-75.3 57.5-122 67.2-28.6 5.9-67.6 5.9-96.2 0-53.3-11.1-102-40.8-136.9-83.6-11.1-13.6-30.4-45.7-33.4-55.8l-.7-2.2H108l3.9 7.7zm335.3 19.8c8.4.8 8.5.5-5.7 15.2l-10.4 10.8-.1-14.1v-14.1l4.8.8c2.6.4 7.7 1 11.4 1.4z"/><path d="M69 332.5V348h32v-31H69v15.5z"/></svg>