<?xml version="1.0" encoding="UTF-8"?>
<!DOCTYPE svg PUBLIC "-//W3C//DTD SVG 1.1//EN" "http://www.w3.org/Graphics/SVG/1.1/DTD/svg11.dtd">
<svg xmlns="http://www.w3.org/2000/svg" version="1.1" width="2048px" height="2048px" style="shape-rendering:geometricPrecision; text-rendering:geometricPrecision; image-rendering:optimizeQuality; fill-rule:evenodd; clip-rule:evenodd" xmlns:xlink="http://www.w3.org/1999/xlink">
<g><path style="opacity:1" fill="#7466d4" d="M 334.5,63.5 C 793.167,63.501 1251.83,63.501 1710.5,63.5C 1809.81,73.4903 1886.98,121.157 1942,206.5C 1965.57,246.214 1979.24,288.881 1983,334.5C 1983.67,793.833 1983.67,1253.17 1983,1712.5C 1974.78,1795.75 1938.28,1864.58 1873.5,1919C 1825.28,1956.84 1771.28,1978.18 1711.5,1983C 1252.83,1983.67 794.167,1983.67 335.5,1983C 251.87,1975.09 182.704,1938.59 128,1873.5C 90.0049,1824.97 68.5049,1770.64 63.5,1710.5C 63.5,1252.5 63.5,794.5 63.5,336.5C 68.878,271.193 94.0446,212.526 139,160.5C 185.036,111.116 240.203,80.2831 304.5,68C 314.621,66.3219 324.621,64.8219 334.5,63.5 Z M 930.5,661.5 C 970.203,660.934 1009.87,661.767 1049.5,664C 1070.41,665.561 1090.41,670.561 1109.5,679C 1121.07,687.299 1128.24,698.465 1131,712.5C 1132.56,720.092 1133.56,727.759 1134,735.5C 1132.66,798.655 1131.49,861.821 1130.5,925C 1130.4,942.194 1130.9,959.36 1132,976.5C 1133.12,994.905 1140.29,1010.4 1153.5,1023C 1163.23,1028.92 1172.9,1028.59 1182.5,1022C 1197.92,1011.25 1211.42,998.414 1223,983.5C 1267.06,925.35 1304.72,863.017 1336,796.5C 1347.94,769.616 1359.61,742.616 1371,715.5C 1380.5,700.253 1394.17,694.253 1412,697.5C 1482.67,696.981 1553.34,695.981 1624,694.5C 1633.58,695.029 1643.08,696.196 1652.5,698C 1672.9,702.951 1681.07,715.784 1677,736.5C 1671.33,759.851 1662.33,781.851 1650,802.5C 1629.91,835.69 1608.58,868.024 1586,899.5C 1549.85,946.475 1514.18,993.808 1479,1041.5C 1470,1054.68 1464.5,1069.18 1462.5,1085C 1462.6,1091.83 1464.1,1098.33 1467,1104.5C 1476.23,1120.41 1487.73,1134.57 1501.5,1147C 1545,1185.17 1585.83,1226 1624,1269.5C 1640.05,1288.61 1654.39,1308.94 1667,1330.5C 1673.26,1340.86 1677.1,1352.02 1678.5,1364C 1677.75,1377.83 1671.42,1388.17 1659.5,1395C 1647.32,1401.62 1634.32,1405.62 1620.5,1407C 1557.99,1407.77 1495.49,1408.94 1433,1410.5C 1401.5,1408.11 1373.33,1397.28 1348.5,1378C 1333.06,1364.56 1318.23,1350.4 1304,1335.5C 1281.27,1308.44 1257.44,1282.27 1232.5,1257C 1223.32,1248.58 1212.99,1241.91 1201.5,1237C 1182.39,1232.3 1167.22,1238.13 1156,1254.5C 1146.13,1270.12 1139.79,1287.12 1137,1305.5C 1133.82,1328.42 1131.48,1351.42 1130,1374.5C 1126.79,1388.09 1118.62,1397.26 1105.5,1402C 948.077,1425.41 811.744,1382.74 696.5,1274C 663,1240.52 632.5,1204.68 605,1166.5C 548.56,1087.34 497.893,1004.34 453,917.5C 423.381,860.263 395.381,802.263 369,743.5C 365.362,734.048 364.362,724.382 366,714.5C 368.584,707.618 373.417,703.118 380.5,701C 388.27,698.26 396.27,696.594 404.5,696C 468.834,695.312 533.168,694.979 597.5,695C 615.778,698.208 629.611,707.708 639,723.5C 672.05,806.285 713.383,884.285 763,957.5C 771.615,969.783 780.615,981.783 790,993.5C 798.909,1004.41 809.076,1013.91 820.5,1022C 831.666,1029.37 843.332,1030.37 855.5,1025C 860.475,1021.03 864.309,1016.2 867,1010.5C 874.004,992.482 878.338,973.815 880,954.5C 884.256,899.792 883.589,845.125 878,790.5C 875.736,772.7 869.736,756.366 860,741.5C 843.88,725.445 824.38,716.278 801.5,714C 800.424,712.274 800.257,710.441 801,708.5C 809.391,693.443 821.558,682.61 837.5,676C 848.501,671.75 859.835,668.75 871.5,667C 891.238,664.266 910.905,662.433 930.5,661.5 Z"/></g>
</svg>
