<svg xmlns="http://www.w3.org/2000/svg" xmlns:xlink="http://www.w3.org/1999/xlink" viewBox="0 0 1660 560"><defs><style>.cls-1{fill:#fff;filter:url(#luminosity-invert-noclip);}.cls-2,.cls-4{fill:#2d2d2d;}.cls-3{mask:url(#mask);}.cls-4{isolation:isolate;}</style><filter id="luminosity-invert-noclip" x="1006.73" y="173.82" width="285.57" height="209.74" filterUnits="userSpaceOnUse" color-interpolation-filters="sRGB"><feColorMatrix values="-1 0 0 0 1 0 -1 0 0 1 0 0 -1 0 1 0 0 0 1 0" result="invert"/><feFlood flood-color="#fff" result="bg"/><feBlend in="invert" in2="bg"/></filter><mask id="mask" x="1006.73" y="173.82" width="285.57" height="209.74" maskUnits="userSpaceOnUse"><path id="dotmask" class="cls-1" d="M1073.94,377.36h-37.77a29.48,29.48,0,0,1-29.44-29.44V310.15a29.47,29.47,0,0,1,29.44-29.44h37.77a29.46,29.46,0,0,1,29.44,29.44v37.77A29.47,29.47,0,0,1,1073.94,377.36Z"/></mask></defs><title>wordmark-light-mono</title><g id="light-mono"><g id="lettering"><path id="o" class="cls-2" d="M218.5,398a112.42,112.42,0,0,1-79.66-32.36c-21.23-21-32.93-49.38-32.93-79.85s11.7-58.83,32.93-79.85a114.22,114.22,0,0,1,159.33,0c21.23,21,32.93,49.37,32.93,79.85s-11.7,58.83-32.93,79.85A112.42,112.42,0,0,1,218.5,398Zm0-199.43c-49.11,0-87.59,38.31-87.59,87.22S169.39,373,218.5,373s87.6-38.31,87.6-87.21S267.62,198.55,218.5,198.55Z"/><path id="p" class="cls-2" d="M411.36,458.8a12.5,12.5,0,0,1-12.5-12.5V329.35l21.9,25c11,12.56,26.35,18.66,46.87,18.66s39.9-8.77,54.48-24.69c15-16.41,23.3-38.62,23.3-62.52s-8.28-46.11-23.3-62.52c-14.58-15.93-33.93-24.7-54.48-24.7s-35.86,6.11-46.87,18.67l-21.9,25V203.84H367.2V446.3a12.5,12.5,0,0,1-25,0V200.78c0-12.92,9-21.94,21.94-21.94h37.78c7.14,0,13.09,2.76,17,7.41,13.47-8.44,29.78-12.7,48.72-12.7,27.65,0,53.54,11.65,72.91,32.81s29.87,49.24,29.87,79.41-10.61,58.37-29.87,79.4S495.28,398,467.63,398c-16.68,0-31.31-3.3-43.77-9.85V446.3A12.5,12.5,0,0,1,411.36,458.8Zm-9.23-254.95Zm-38.21,0Zm3.29-3.29Z"/><path id="e" class="cls-2" d="M695.56,398c-33.62,0-62.57-11.21-83.73-32.42-20.32-20.37-31.51-48.71-31.51-79.79,0-30.84,11.33-59.18,31.89-79.79,20.85-20.91,49.92-32.43,81.84-32.43,30.93,0,57.22,8.77,76,25.36,20,17.68,30.64,41.4,30.64,72.39a74.3,74.3,0,0,1-.85,13.7,24,24,0,0,1-10.22,16,28,28,0,0,1-15.38,4.68H665.64c5.69,9.35,16.13,20.46,28.68,20.46,10.18,0,18.74-2.7,21.94-5.36l.2-.16c6.62-5.3,12.59-6.38,19.52-6.38h36.26a19.89,19.89,0,0,1,17,9.59,24.34,24.34,0,0,1,.95,23.19C773.19,380.83,741.37,398,695.56,398Zm-1.51-199.43c-51.41,0-88.73,36.68-88.73,87.22,0,24.42,8.6,46.48,24.21,62.13,16.36,16.41,39.2,25.08,66,25.08,34.89,0,57.38-10.76,70.42-33.78H736c-2.7,0-2.9.09-3.82.83-12.44,10.27-32.1,11.07-37.84,11.07-34.14,0-57.59-29.79-59.31-52.42a120.4,120.4,0,0,1,.44-16H774.28a2.91,2.91,0,0,0,.91-.19l.09-1a80,80,0,0,0,.45-8.18c0-23.94-7.46-42.66-22.18-55.64C739.37,205.16,718.8,198.55,694.05,198.55Z"/><path id="n" class="cls-2" d="M988.77,383.25a12.49,12.49,0,0,1-12.5-12.5V260.46c0-38.19-18.37-61.91-47.94-61.91-17.81,0-31.21,5.89-38.75,17l-22.85,33.79V203.84H835.07V370.75a12.5,12.5,0,1,1-25,0v-170c0-12.92,9-21.94,21.95-21.94h37.77a21.91,21.91,0,0,1,15.92,6.23c11.54-7.52,26.08-11.52,42.62-11.52,21.12,0,39.92,8.5,52.95,23.94s20,37.27,20,63V370.75A12.5,12.5,0,0,1,988.77,383.25Z"/><g class="cls-3"><path id="m" class="cls-4" d="M1279.79,383.55a12.5,12.5,0,0,1-12.5-12.5V253.21c0-36.07-15.49-54.36-46-54.36h-.78c-16.14.18-29.1,6.08-40.72,18.52l-11,11.72-8.69-13.49c-7.15-11.11-18.35-16.75-33.28-16.75-19,0-28.85,10.55-33,16.84l-22.93,34.61V204.14h-31.65V329a12.5,12.5,0,0,1-25,0V201.08c0-12.92,9-21.94,21.94-21.94h37.77a22,22,0,0,1,15.57,5.88,65.48,65.48,0,0,1,37.31-11.17c17.9,0,33.42,5.91,45,16.89,14.28-11.35,30.58-17.42,49.46-16.89,3.13.08,9.38.52,12.5.84,37.08,3.82,58.54,33.67,58.54,78.52V371.05A12.49,12.49,0,0,1,1279.79,383.55Z"/></g><path id="dot" class="cls-4" d="M1073.94,369.86h-37.77a22,22,0,0,1-21.94-21.94V310.15a22,22,0,0,1,21.94-21.94h37.77a22,22,0,0,1,21.94,21.94v37.77A22,22,0,0,1,1073.94,369.86Zm-34.71-25h31.65V313.21h-31.65Z"/><path id="p-2" data-name="p" class="cls-2" d="M1373.09,459.09a12.49,12.49,0,0,1-12.5-12.5V329.64l21.89,25c11,12.56,26.36,18.67,46.88,18.67s39.89-8.77,54.48-24.69c15-16.42,23.3-38.62,23.3-62.53s-8.28-46.11-23.3-62.52c-14.58-15.92-33.93-24.69-54.48-24.69s-35.86,6.1-46.88,18.67l-21.89,25V204.14h-31.66V446.59a12.5,12.5,0,0,1-25,0V201.08c0-12.92,9-21.94,21.94-21.94h37.77c7.15,0,13.1,2.76,17,7.41,13.47-8.44,29.78-12.7,48.72-12.7,27.65,0,53.54,11.65,72.91,32.81s29.87,49.23,29.87,79.4-10.61,58.38-29.87,79.41-45.26,32.81-72.91,32.81c-16.68,0-31.32-3.3-43.77-9.85v58.16A12.5,12.5,0,0,1,1373.09,459.09Z"/></g></g></svg>