<?xml version="1.0" encoding="utf-8"?>
<!-- Generator: Adobe Illustrator 24.3.0, SVG Export Plug-In . SVG Version: 6.00 Build 0)  -->
<svg version="1.1" id="Layer_1" xmlns="http://www.w3.org/2000/svg" xmlns:xlink="http://www.w3.org/1999/xlink" x="0px" y="0px"
	 viewBox="0 0 50 50" style="enable-background:new 0 0 50 50;" xml:space="preserve">
<style type="text/css">
	.st0{fill:#7466D4;}
</style>
<path class="st0" d="M9,4C6.2,4,4,6.2,4,9v32c0,2.8,2.2,5,5,5h32c2.8,0,5-2.2,5-5V9c0-2.8-2.2-5-5-5H9z M15,8h2.4l1.6,4l1.6-4H23
	l-3,7v4h-2v-4C17.4,13.4,15.4,9,15,8z M25,11c0.9,0,1.8,0.3,2.3,0.9c0.4,0.5,0.7,1.3,0.7,2.3v1.5c0,1-0.2,1.8-0.6,2.2
	c-0.6,0.7-1.5,1-2.4,1s-1.8-0.3-2.4-1c-0.4-0.5-0.6-1.2-0.6-2.2v-1.5c0-1,0.2-1.8,0.7-2.3C23.2,11.3,24,11,25,11z M29,11h2v6
	c0,0.3,0.3,0.4,0.6,0.4c0.4,0,0.9-0.5,1.4-1V11h2v8h-2v-1.4c-0.8,0.8-1.5,1.4-2.4,1.4c-0.7,0-1.1-0.3-1.3-0.7
	C29.1,18,29,17.5,29,16.8V11z M25,12.6c-0.1,0-0.3,0-0.4,0.1s-0.2,0.1-0.3,0.2c-0.1,0.1-0.2,0.2-0.2,0.3C24,13.4,24,13.5,24,13.6
	v2.8c0,0.3,0.1,0.5,0.3,0.7c0.1,0.1,0.2,0.2,0.3,0.2c0.1,0.1,0.3,0.1,0.4,0.1s0.3,0,0.4-0.1c0.4-0.2,0.6-0.5,0.6-0.9v-2.8
	C26,13.1,25.5,12.6,25,12.6z M25,22L25,22c0,0,6.7,0,11.2,0.3c0.6,0.1,2,0.1,3.2,1.3c1,0.9,1.3,3.1,1.3,3.1s0.3,1.5,0.3,4.1v2.4
	c0,2.5-0.3,4.1-0.3,4.1s-0.3,2.2-1.3,3.1c-1.2,1.2-2.6,1.3-3.2,1.3C31.7,42,25,42,25,42s-8.3-0.1-10.9-0.3c-0.7-0.1-2.3-0.1-3.5-1.3
	c-1-1-1.3-3.1-1.3-3.1S9,35.7,9,33.2v-2.4c0-2.5,0.3-4.1,0.3-4.1s0.3-2.2,1.3-3.1c1.2-1.2,2.6-1.3,3.2-1.3C18.3,22,25,22,25,22z
	 M12,26v2h2v10h2V28h2v-2H12z M25,26v12h2v-1.2c0.6,0.8,1.5,1.2,2.1,1.2c0.8,0,1.4-0.4,1.7-1.2c0.1-0.4,0.2-0.8,0.2-1.7v-2.8
	c0-1-0.1-1.7-0.3-2.2c-0.3-0.8-0.9-1.2-1.6-1.2c-1,0-1.4,0.5-2.1,1.4V26H25z M18,29v6.7c0,0.7,0.1,1.2,0.2,1.5
	c0.2,0.5,0.7,0.8,1.3,0.8c0.7,0,1.7-0.5,2.5-1.4V38h2v-9h-2v6.3c-0.4,0.6-1.1,1-1.5,1c-0.3,0-0.5-0.1-0.5-0.4V29H18z M35,29
	c-1,0-1.8,0.3-2.4,0.9C32.2,30.4,32,31.1,32,32v3.1c0,0.9,0.3,1.6,0.7,2c0.6,0.6,1.4,0.9,2.4,0.9c1,0,1.8-0.3,2.4-0.9
	c0.2-0.3,0.4-0.6,0.5-0.9c0-0.2,0.1-0.6,0.1-1.1h-2v0.8c0,0.5-0.4,0.8-1,0.8s-1-0.4-1-0.8V34h4v-0.6V32c0-0.9-0.2-1.6-0.6-2.1
	C36.8,29.3,36,29,35,29z M35,30.4c0.6,0,1,0.4,1,0.8v1.3h-2v-1.3C34,30.8,34.4,30.4,35,30.4z M28.2,30.7c0.5,0,0.8,0.3,0.8,1.4v2.8
	c0,1-0.2,1.4-0.8,1.4c-0.3,0-0.9-0.2-1.2-0.5v-4.4C27.3,31.1,27.9,30.7,28.2,30.7z"/>
</svg>
