<svg id="main" xmlns="http://www.w3.org/2000/svg" viewBox="0 0 600 600"><defs><style>.cls-1{fill:#fff;}.cls-1,.cls-2,.cls-4{stroke:#000;stroke-width:20px;}.cls-1,.cls-3,.cls-4{stroke-linejoin:round;}.cls-2,.cls-3,.cls-4{fill:none;}.cls-2{stroke-linecap:round;stroke-miterlimit:10;}.cls-3{stroke:#fff;stroke-width:50px;}</style></defs><title>logo</title><circle class="cls-1" cx="297.28" cy="300" r="254.27"/><path class="cls-2" d="M92.87,330.64V222.24c0-5.12,2.88-8,8-8h32c5.12,0,8,2.88,8,8v6.53c7.33-11.08,20.08-19,36.8-19,16.15,0,29,6.53,37.1,19.05,10.37-11.1,23.7-19.05,42.9-19.05h0c31.36,0,49.6,19.84,49.6,56.64v99.84"/><path class="cls-3" d="M92.87,346.64v-32a8,8,0,0,1,8-8h32a8,8,0,0,1,8,8v32a8,8,0,0,1-8,8h-32A8,8,0,0,1,92.87,346.64Z"/><path class="cls-4" d="M92.87,346.64v-32a8,8,0,0,1,8-8h32a8,8,0,0,1,8,8v32a8,8,0,0,1-8,8h-32A8,8,0,0,1,92.87,346.64Z"/><path class="cls-2" d="M338.32,430.24v-208c0-5.12,2.88-8,8-8h32c5.12,0,8,2.88,8,8v6.94C397,217,412.58,209.76,434,209.76c41.92,0,76.48,36.8,76.48,84.48S475.92,378.72,434,378.72c-21.42,0-37-7.22-47.68-19.42v70.94"/><circle class="cls-4" cx="297.28" cy="300" r="254.27"/></svg>