<?xml version="1.0" encoding="UTF-8"?>
<!DOCTYPE svg PUBLIC "-//W3C//DTD SVG 1.1//EN" "http://www.w3.org/Graphics/SVG/1.1/DTD/svg11.dtd">
<svg xmlns="http://www.w3.org/2000/svg" version="1.1" width="128px" height="128px" style="shape-rendering:geometricPrecision; text-rendering:geometricPrecision; image-rendering:optimizeQuality; fill-rule:evenodd; clip-rule:evenodd" xmlns:xlink="http://www.w3.org/1999/xlink">
<g><path style="opacity:0.946" fill="#7465d6" d="M 127.5,16.5 C 127.5,20.1667 127.5,23.8333 127.5,27.5C 112.365,44.8016 96.0314,60.9682 78.5,76C 71.3059,80.0167 63.6392,81.35 55.5,80C 52.5428,69.7777 54.3762,60.2777 61,51.5C 75.1667,37.3333 89.3333,23.1667 103.5,9C 114.057,3.80212 122.057,6.30212 127.5,16.5 Z M 110.5,17.5 C 115.494,17.329 117.328,19.6624 116,24.5C 103.167,37.3333 90.3333,50.1667 77.5,63C 74.6612,64.9203 71.6612,66.5869 68.5,68C 67.365,68.7494 66.365,68.5827 65.5,67.5C 66.3917,64.7163 67.5584,62.0496 69,59.5C 83.0352,45.6319 96.8686,31.6319 110.5,17.5 Z"/></g>
<g><path style="opacity:0.947" fill="#7465d5" d="M -0.5,110.5 C -0.5,86.1667 -0.5,61.8333 -0.5,37.5C 2.67442,29.493 8.34109,23.993 16.5,21C 33.7886,19.4052 51.1219,19.0719 68.5,20C 69.4162,20.3742 70.2496,20.8742 71,21.5C 71.9782,24.6693 71.4782,27.5027 69.5,30C 53.8333,30.3333 38.1667,30.6667 22.5,31C 14.7534,32.7466 10.5868,37.5799 10,45.5C 9.33333,65.5 9.33333,85.5 10,105.5C 11.8155,109.663 14.6489,110.497 18.5,108C 21.2026,104.962 24.2026,102.295 27.5,100C 48.2308,99.9657 68.8975,99.299 89.5,98C 92.0402,95.7953 94.2068,93.2953 96,90.5C 97.1079,83.8847 97.7746,77.218 98,70.5C 101,67.8333 104,67.8333 107,70.5C 107.667,77.8333 107.667,85.1667 107,92.5C 104.5,101.667 98.6667,107.5 89.5,110C 70.1667,110.333 50.8333,110.667 31.5,111C 27.1174,116.567 21.4507,119.734 14.5,120.5C 7.31133,120.291 2.31133,116.958 -0.5,110.5 Z"/></g>
<g><path style="opacity:0.913" fill="#7465d5" d="M 22.5,49.5 C 28.8421,49.3338 35.1754,49.5005 41.5,50C 42.4162,50.3742 43.2496,50.8742 44,51.5C 44.9782,54.6693 44.4782,57.5027 42.5,60C 35.5,60.6667 28.5,60.6667 21.5,60C 18.6149,56.0562 18.9483,52.5562 22.5,49.5 Z"/></g>
<g><path style="opacity:0.913" fill="#7465d5" d="M 22.5,69.5 C 28.8421,69.3338 35.1754,69.5005 41.5,70C 42.4162,70.3742 43.2496,70.8742 44,71.5C 44.9782,74.6693 44.4782,77.5027 42.5,80C 35.5,80.6667 28.5,80.6667 21.5,80C 18.6149,76.0562 18.9483,72.5562 22.5,69.5 Z"/></g>
</svg>
