<?xml version="1.0" encoding="utf-8"?>
<!-- Generator: Adobe Illustrator 24.3.0, SVG Export Plug-In . SVG Version: 6.00 Build 0)  -->
<svg version="1.1" id="Layer_1" xmlns="http://www.w3.org/2000/svg" xmlns:xlink="http://www.w3.org/1999/xlink" x="0px" y="0px"
	 viewBox="0 0 50 50" style="enable-background:new 0 0 50 50;" xml:space="preserve">
<style type="text/css">
	.st0{fill:#7466D4;}
</style>
<g id="surface44616375">
	<path class="st0" d="M41.6,10.8C37.6,7.6,31.3,7,31.1,7c-0.4,0-0.8,0.2-1,0.6c0,0-0.2,0.3-0.3,0.8c2.6,0.4,5.9,1.3,8.8,3.2
		c0.5,0.3,0.6,0.9,0.3,1.4c-0.2,0.3-0.5,0.5-0.9,0.5c-0.2,0-0.4-0.1-0.5-0.2C32.5,10.2,26.2,10,25,10s-7.5,0.2-12.5,3.3
		c-0.5,0.3-1.1,0.1-1.4-0.3c-0.3-0.5-0.1-1.1,0.3-1.4c2.9-1.8,6.2-2.7,8.8-3.2c-0.2-0.5-0.3-0.8-0.3-0.8c-0.2-0.4-0.6-0.6-1-0.6
		c-0.3,0-6.6,0.6-10.6,3.8C6.2,12.8,2,24.2,2,34c0,0.2,0,0.3,0.1,0.5C5,39.6,13,40.9,14.8,41c0,0,0,0,0,0c0.3,0,0.6-0.2,0.8-0.4
		l1.8-2.5c-4.9-1.3-7.5-3.4-7.6-3.6c-0.4-0.4-0.5-1-0.1-1.4c0.4-0.4,1-0.5,1.4-0.1c0.1,0.1,4.7,4,13.8,4c9.1,0,13.8-4,13.8-4
		c0.4-0.4,1-0.3,1.4,0.1c0.4,0.4,0.3,1-0.1,1.4c-0.1,0.1-2.7,2.3-7.6,3.6l1.8,2.5c0.2,0.3,0.5,0.4,0.8,0.4c0,0,0,0,0,0
		c1.8-0.1,9.7-1.4,12.6-6.5C48,34.3,48,34.2,48,34C48,24.2,43.8,12.8,41.6,10.8z M18.5,30c-1.9,0-3.5-1.8-3.5-4s1.6-4,3.5-4
		s3.5,1.8,3.5,4S20.4,30,18.5,30z M31.5,30c-1.9,0-3.5-1.8-3.5-4s1.6-4,3.5-4s3.5,1.8,3.5,4S33.4,30,31.5,30z"/>
</g>
</svg>
