<svg version="1.2" xmlns="http://www.w3.org/2000/svg" viewBox="0 0 150 150" width="150" height="150">
	<title>discord-icon</title>
	<style>
		.s0 { fill: #7466d4 } 
	</style>
	<path id="Layer" fill-rule="evenodd" class="s0" d="m106.6 105.7q-4.6 1.8-9.1 3.5c-0.5 0.2-0.7 0-0.9-0.3q-2.2-3.6-4.4-7.1c-0.1-0.1 0-0.3 0-0.3 2.5-1.3 5-2.4 7.6-3.7-0.6-0.4-1-0.8-1.4-1.1-0.3-0.2-0.7-0.3-1-0.1-3.3 1.6-6.8 2.7-10.3 3.5-1.9 0.5-3.9 0.7-5.8 1-2 0.2-4.1 0.4-6.1 0.4-3.1-0.1-6.1-0.3-9.2-0.8q-6.8-1.2-13-4.1c-0.5-0.2-0.8-0.1-1.1 0.2-0.4 0.3-0.8 0.6-1.4 1 2.6 1.3 5.1 2.5 7.8 3.7-1.1 1.9-2.2 3.7-3.4 5.5-0.4 0.7-0.9 1.3-1.3 2-0.3 0.3-0.5 0.3-0.9 0.2-3.1-1-6.2-2.2-9.2-3.6q-5.8-2.6-11.1-6.3c-0.6-0.4-1.2-0.7-1.7-1.2-0.2-0.2-0.3-0.5-0.4-0.8q-0.1-0.7-0.1-1.4c-0.1-3.1-0.3-6.1-0.1-9.1 0.2-3.3 0.7-6.6 1.1-9.9 0.5-3.8 1.6-7.5 2.9-11.1q2.2-6.4 5.5-12.3c1.3-2.2 2.7-4.4 4.1-6.6 0.2-0.3 0.7-0.5 1.1-0.6 4.5-2.1 9.3-3.5 14.1-4.7q1.4-0.3 2.9-0.6c0.5-0.1 0.8 0 1 0.5 0.7 1.4 1.4 2.8 2.1 4.2 1.1-0.1 2.4-0.2 3.6-0.3 0.7-0.1 1.3-0.3 1.9-0.3 2.1 0 4.1-0.2 6.2-0.1 2.6 0.1 5.2 0.4 7.8 0.7 0.7 0.1 1.1-0.1 1.4-0.8 0.5-1.2 1.2-2.4 1.8-3.5 0.1-0.2 0.6-0.4 0.8-0.4 3.6 0.9 7.3 1.8 10.8 2.8 2.2 0.7 4.3 1.6 6.3 2.5 0.6 0.2 1.2 0.7 1.5 1.2q3.6 5.3 6.4 11.2c2.1 4.6 3.8 9.4 4.9 14.4 0.6 2.6 1 5.3 1.3 8 0.3 2.1 0.4 4.2 0.5 6.2 0.1 1.4 0.2 2.8 0.1 4.1 0 2.1-0.2 4.1-0.4 6.2 0 0.2-0.2 0.4-0.4 0.6-2.6 2-5.4 3.7-8.3 5.3-1.5 0.7-3 1.5-4.5 2.2zm-38.9-30.3c-0.6-1.4-1.3-2.7-2.4-3.8-3.8-3.5-9.1-2.7-11.8 1.3-2.4 3.6-2.4 7.4 0 11.1 1.5 2.4 3.8 3.7 6.7 3.6 2.3-0.1 4.3-1.1 5.7-3 2.2-2.7 2.7-5.8 1.8-9.2zm20.3 11.8c2.5 0.9 4.9 0.3 7-1.2 2-1.6 3.2-3.8 3.4-6.3 0.3-3.3-0.5-6.3-3.3-8.6-3.5-2.8-8.3-2-11 1.5-1.6 2.2-2.2 4.6-1.8 7.4 0.6 3.4 2.3 5.8 5.7 7.2z"/>
</svg>
