<svg version="1.2" xmlns="http://www.w3.org/2000/svg" viewBox="0 0 1024 1024" width="1024" height="1024">
	<title>discord-avatar-1024-F1HXQ-svg</title>
	<style>
		.s0 { fill: #7466d4 } 
	</style>
	<path id="Layer" fill-rule="evenodd" class="s0" d="m727.7 721.7c-21 8-41.7 15.8-62.4 23.7-2.9 1.1-4.2 0.4-5.8-2.3-9.9-16.1-20-32.1-29.9-48.1-0.6-0.9-0.5-2.2-0.5-2.4 17.4-8.3 34.4-16.3 51.9-24.7-3.9-3.2-6.6-5.4-9.4-7.6-2.2-1.8-4.3-1.9-7-0.6-22.4 10.6-45.9 18.4-70 23.9-13.1 2.9-26.4 4.8-39.7 6.3-13.7 1.5-27.6 3.1-41.3 2.9-21.1-0.3-42-2-62.8-5.6-31.1-5.3-60.8-14.5-89.3-27.5-3-1.3-5.2-1-7.5 0.8-2.6 2.1-5.3 4.2-9 7.2 17.7 8.5 34.7 16.7 52.9 25.4-7.7 12.5-15.2 25-23 37.4-2.8 4.6-6.2 8.8-9.1 13.3-1.6 2.5-3.4 2.6-5.8 1.8-21.2-7.2-42.3-14.9-62.7-24.4-26.6-12.2-51.9-26.7-76.1-43.2-3.9-2.6-7.9-5.2-11.5-8.2-1.4-1.2-2.2-3.5-2.6-5.5-0.7-3.2-1-6.5-1.1-9.8-0.4-20.7-1.8-41.5-0.7-62.2 1.3-22.6 4.7-45 7.7-67.4 3.6-26 11-51.2 19.6-76 10-29 22.7-56.9 37.8-83.6 8.7-15.3 18.2-30.2 27.7-45 1.4-2.2 4.9-3.3 7.6-4.5 31-14 63.3-23.8 96.2-31.7 6.7-1.6 13.4-2.8 20.1-4 3-0.6 5.3 0 6.8 3.2 4.5 9.5 9.2 18.8 14.2 28.9 7.8-0.8 16.3-1.7 24.8-2.6 4.4-0.5 8.7-1.4 13.1-1.5 14-0.5 27.9-1.6 41.8-0.9 17.9 0.8 35.7 3 53.5 4.8 4.5 0.4 7.6-0.4 9.6-5.2 3.6-8.4 7.9-16.5 12.3-24.5 0.8-1.3 4-2.5 5.6-2.1 24.6 6.1 49.4 11.8 73.7 19 14.7 4.4 28.9 10.8 43.1 16.9 3.8 1.6 7.6 4.7 9.9 8.1 16.6 24.3 31 49.9 43.5 76.6 14.6 31.4 26.1 64.2 33.8 98 4.1 18.1 6.8 36.6 9.1 55 1.9 14.1 2.3 28.3 3.2 42.4 0.5 9.3 1.2 18.6 0.9 27.8-0.5 14.1-1.8 28.2-3 42.3-0.1 1.4-1.5 3-2.7 4-17.8 13.9-37.2 25.4-57 36-10 5.3-20.1 10.2-30.5 15.4zm-265.8-206.9c-3.6-9.8-8.7-18.6-16.4-25.8-25.4-24.1-61.9-18.5-80.1 8.7-16.3 24.4-16.6 50.5-0.2 75.5 10.6 16.3 26.2 25.4 46 24.6 15.8-0.6 28.9-7.6 39-20.4 14.6-18.6 18.1-39.2 11.7-62.6zm138.7 80.2c17.4 6.4 33.5 2.6 47.6-8 13.8-10.6 21.9-25.6 23.6-42.8 2.1-22.9-3.7-43.2-22.5-58.5-24.2-19.5-56.7-14.1-75.1 10.1-11.1 14.7-15.4 31.5-12.3 50.1 3.9 23.2 15.8 40 38.7 49.1z"/>
</svg>
