<?xml version="1.0" encoding="utf-8"?>
<!-- Generator: Adobe Illustrator 24.3.0, SVG Export Plug-In . SVG Version: 6.00 Build 0)  -->
<svg version="1.1" id="Layer_1" xmlns="http://www.w3.org/2000/svg" xmlns:xlink="http://www.w3.org/1999/xlink" x="0px" y="0px"
	 viewBox="0 0 50 50" style="enable-background:new 0 0 50 50;" xml:space="preserve">
<style type="text/css">
	.st0{fill:#7466D4;}
</style>
<path class="st0" d="M50.1,10.4c-1.8,0.8-3.8,1.4-5.9,1.6c2.1-1.3,3.8-3.3,4.5-5.7c-2,1.2-4.2,2-6.5,2.5c-1.9-2-4.5-3.2-7.5-3.2
	c-5.7,0-10.3,4.6-10.3,10.3c0,0.8,0.1,1.6,0.3,2.3C16.1,17.8,8.5,13.7,3.4,7.5C2.5,9,2,10.8,2,12.7c0,3.6,1.8,6.7,4.6,8.6
	c-1.7-0.1-3.3-0.5-4.7-1.3c0,0,0,0.1,0,0.1c0,5,3.5,9.1,8.2,10.1c-0.9,0.2-1.8,0.4-2.7,0.4c-0.7,0-1.3-0.1-1.9-0.2
	c1.3,4.1,5.1,7.1,9.6,7.1c-3.5,2.8-7.9,4.4-12.8,4.4c-0.8,0-1.6,0-2.4-0.1c4.5,2.9,10,4.6,15.8,4.6C34.6,46.3,45,30.7,45,17.1
	c0-0.4,0-0.9,0-1.3C46.9,14.3,48.7,12.5,50.1,10.4z"/>
</svg>
