<?xml version="1.0" encoding="utf-8"?>
<!-- Generator: Adobe Illustrator 24.3.0, SVG Export Plug-In . SVG Version: 6.00 Build 0)  -->
<svg version="1.1" id="Layer_1" xmlns="http://www.w3.org/2000/svg" xmlns:xlink="http://www.w3.org/1999/xlink" x="0px" y="0px"
	 viewBox="0 0 50 50" style="enable-background:new 0 0 50 50;" xml:space="preserve">
<style type="text/css">
	.st0{fill:#7466D4;}
</style>
<path class="st0" d="M16,3C8.8,3,3,8.8,3,16v18c0,7.2,5.8,13,13,13h18c7.2,0,13-5.8,13-13V16c0-7.2-5.8-13-13-13H16z M37,11
	c1.1,0,2,0.9,2,2s-0.9,2-2,2s-2-0.9-2-2S35.9,11,37,11z M25,14c6.1,0,11,4.9,11,11s-4.9,11-11,11s-11-4.9-11-11S18.9,14,25,14z
	 M25,16c-5,0-9,4-9,9s4,9,9,9s9-4,9-9S30,16,25,16z"/>
</svg>
