<svg width="204" height="69" viewBox="0 0 204 69" fill="none" xmlns="http://www.w3.org/2000/svg">
<path d="M26.8517 44.3492C23.1902 44.3734 19.669 42.9419 17.0622 40.3695C14.4532 37.7876 13.0154 34.2996 13.0154 30.5522C13.0154 26.8048 14.4532 23.3193 17.0622 20.7362C19.6828 18.1844 23.1954 16.7566 26.8524 16.7566C30.5093 16.7566 34.0219 18.1844 36.6425 20.7362C39.2515 23.318 40.6893 26.806 40.6893 30.5522C40.6893 34.2984 39.2515 37.7864 36.6425 40.3695C34.0353 42.9421 30.5136 44.3736 26.8517 44.3492V44.3492ZM26.8517 19.83C20.8165 19.83 16.0877 24.5401 16.0877 30.5522C16.0877 36.5643 20.8165 41.2756 26.8517 41.2756C32.8869 41.2756 37.617 36.5655 37.617 30.5522C37.617 24.5389 32.8882 19.83 26.8517 19.83Z" fill="#8577CE"/>
<path d="M50.5526 51.8256C50.3509 51.8258 50.151 51.7861 49.9646 51.709C49.7781 51.6318 49.6087 51.5186 49.4661 51.3758C49.3234 51.2331 49.2102 51.0636 49.1331 50.8771C49.056 50.6906 49.0163 50.4906 49.0165 50.2888V35.9102L51.7078 38.9839C53.0596 40.5281 54.946 41.2793 57.4677 41.2793C59.9895 41.2793 62.3711 40.201 64.1629 38.2437C66.0063 36.2262 67.0262 33.4955 67.0262 30.5559C67.0262 27.6162 66.0087 24.8868 64.1629 22.8693C62.3711 20.912 59.9932 19.8337 57.4677 19.8337C54.9423 19.8337 53.0609 20.5849 51.7078 22.1291L49.0165 25.2028V20.4841H45.1258V50.2888C45.1258 50.6964 44.9639 51.0873 44.6758 51.3755C44.3877 51.6637 43.997 51.8256 43.5896 51.8256C43.1822 51.8256 42.7915 51.6637 42.5034 51.3755C42.2153 51.0873 42.0535 50.6964 42.0535 50.2888V20.1042C42.0535 18.5157 43.1595 17.4068 44.7497 17.4068H49.3925C50.27 17.4068 51.0012 17.7461 51.4817 18.3178C53.1371 17.2801 55.1414 16.7564 57.469 16.7564C60.8669 16.7564 64.0486 18.1887 66.429 20.7903C68.8094 23.3918 70.0998 26.8429 70.0998 30.5522C70.0998 34.2615 68.7959 37.7298 66.429 40.3154C64.0621 42.9009 60.8669 44.3492 57.469 44.3492C55.4191 44.3492 53.6212 43.9435 52.09 43.1382V50.2888C52.09 50.4907 52.0502 50.6906 51.973 50.8772C51.8957 51.0637 51.7824 51.2332 51.6397 51.3759C51.4969 51.5186 51.3274 51.6318 51.1409 51.709C50.9544 51.7861 50.7545 51.8258 50.5526 51.8256V51.8256Z" fill="#8577CE"/>
<path d="M85.4784 44.3492C81.3468 44.3492 77.7891 42.971 75.1887 40.3633C72.6916 37.8577 71.3164 34.3746 71.3164 30.5522C71.3164 26.7618 72.7088 23.2775 75.2354 20.7423C77.7977 18.1715 81.3702 16.7564 85.2929 16.7564C89.0939 16.7564 92.3247 17.8346 94.6326 19.8743C97.0904 22.0468 98.398 24.9643 98.398 28.7744C98.4152 29.3379 98.3802 29.9017 98.2935 30.4588C98.2281 30.8538 98.0831 31.2313 97.8671 31.5685C97.6512 31.9056 97.369 32.1952 97.0376 32.4197C96.4773 32.7923 95.8202 32.9923 95.1475 32.9951H81.8015C82.5008 34.1459 83.7837 35.5119 85.326 35.5119C86.5771 35.5119 87.629 35.1799 88.0223 34.8516L88.0469 34.832C88.8604 34.1816 89.5941 34.0476 90.4457 34.0476H94.9017C95.322 34.0481 95.735 34.157 96.1009 34.3638C96.4669 34.5705 96.7734 34.8681 96.9909 35.2278C97.2461 35.6558 97.3904 36.1407 97.4108 36.6386C97.4312 37.1365 97.327 37.6316 97.1076 38.079C95.0185 42.2456 91.1081 44.3492 85.4784 44.3492ZM85.2929 19.83C78.975 19.83 74.3887 24.3397 74.3887 30.5522C74.3887 33.5545 75.4456 36.268 77.3639 38.1921C79.3744 40.2096 82.1812 41.2756 85.4747 41.2756C89.7624 41.2756 92.5262 39.9527 94.1288 37.1212H90.4482C90.1163 37.1212 90.0918 37.1335 89.9787 37.2245C88.4499 38.4872 86.0339 38.5855 85.3285 38.5855C81.133 38.5855 78.2512 34.9229 78.0398 32.1394C78.0142 31.4832 78.0322 30.8261 78.0939 30.1723H95.1524C95.1906 30.1704 95.2283 30.1629 95.2643 30.1502C95.2643 30.1096 95.2716 30.069 95.2753 30.0272C95.3109 29.6931 95.3293 29.3575 95.3306 29.0215C95.3306 26.0708 94.4139 23.7766 92.6049 22.1808C90.8623 20.6427 88.3344 19.83 85.2929 19.83Z" fill="#8577CE"/>
<path d="M121.512 42.5382C121.104 42.5382 120.713 42.3763 120.425 42.0881C120.137 41.7999 119.975 41.409 119.975 41.0014V27.4416C119.975 22.7463 117.718 19.83 114.084 19.83C111.895 19.83 110.248 20.5542 109.322 21.9201L106.514 26.0745V20.4841H102.623V41.0014C102.623 41.409 102.461 41.7999 102.173 42.0881C101.885 42.3763 101.494 42.5382 101.087 42.5382C100.68 42.5382 100.289 42.3763 100.001 42.0881C99.7126 41.7999 99.5508 41.409 99.5508 41.0014V20.1005C99.5508 18.512 100.657 17.4031 102.248 17.4031H106.89C107.251 17.3928 107.61 17.4553 107.946 17.5869C108.282 17.7185 108.588 17.9165 108.846 18.169C110.264 17.2432 112.051 16.7527 114.084 16.7527C116.679 16.7527 118.99 17.7977 120.591 19.696C122.192 21.5943 123.049 24.2782 123.049 27.4416V41.0014C123.049 41.2033 123.009 41.4033 122.932 41.5898C122.855 41.7763 122.741 41.9458 122.599 42.0885C122.456 42.2313 122.286 42.3444 122.1 42.4216C121.913 42.4988 121.713 42.5384 121.512 42.5382Z" fill="#8577CE"/>
<path d="M157.275 42.5751C156.868 42.5751 156.477 42.4132 156.189 42.125C155.901 41.8368 155.739 41.4459 155.739 41.0383V26.5491C155.739 22.1156 153.836 19.8669 150.086 19.8669H149.99C148.007 19.8891 146.414 20.6144 144.986 22.1427L143.634 23.5848L142.567 21.9251C141.694 20.5591 140.311 19.8694 138.477 19.8694C136.142 19.8694 134.931 21.1665 134.421 21.9398L131.603 26.195V20.5173H127.714V35.8721C127.714 36.2797 127.552 36.6706 127.264 36.9588C126.976 37.247 126.585 37.4089 126.178 37.4089C125.77 37.4089 125.38 37.247 125.092 36.9588C124.803 36.6706 124.642 36.2797 124.642 35.8721V20.135C124.642 18.5465 125.748 17.4375 127.338 17.4375H131.979C132.687 17.4185 133.374 17.6781 133.893 18.1604C135.247 17.2513 136.846 16.7754 138.477 16.7957C140.676 16.7957 142.584 17.5211 144.007 18.8711C145.762 17.4769 147.765 16.7306 150.085 16.7945C150.47 16.8056 151.238 16.8584 151.621 16.899C156.178 17.3687 158.815 21.0386 158.815 26.5515V41.0383C158.815 41.2404 158.775 41.4406 158.698 41.6273C158.621 41.814 158.507 41.9836 158.364 42.1263C158.221 42.2691 158.051 42.3822 157.864 42.4592C157.678 42.5362 157.477 42.5756 157.275 42.5751V42.5751Z" fill="#8577CE"/>
<path d="M131.978 40.8932H127.337C126.621 40.8913 125.935 40.6055 125.43 40.0984C124.924 39.5914 124.64 38.9045 124.64 38.1884V33.5496C124.642 32.8348 124.927 32.1499 125.432 31.6444C125.937 31.139 126.622 30.8542 127.337 30.8522H131.978C132.693 30.8542 133.377 31.139 133.883 31.6444C134.388 32.1499 134.673 32.8348 134.675 33.5496V38.1884C134.675 38.9045 134.391 39.5914 133.885 40.0984C133.38 40.6055 132.694 40.8913 131.978 40.8932ZM127.713 37.8196H131.602V33.9259H127.713V37.8196Z" fill="#8577CE"/>
<path d="M168.741 51.8625C168.334 51.8625 167.943 51.7006 167.655 51.4124C167.367 51.1242 167.205 50.7333 167.205 50.3257V35.941L169.895 39.0146C171.247 40.5588 173.134 41.31 175.656 41.31C178.178 41.31 180.558 40.2318 182.351 38.2733C184.195 36.2557 185.215 33.5263 185.215 30.5866C185.215 27.647 184.197 24.9176 182.351 22.9C180.56 20.9415 178.182 19.8633 175.656 19.8633C173.131 19.8633 171.249 20.6145 169.895 22.1587L167.205 25.2323V20.5161H163.314V50.3257C163.314 50.7333 163.152 51.1242 162.864 51.4124C162.576 51.7006 162.185 51.8625 161.778 51.8625C161.371 51.8625 160.98 51.7006 160.692 51.4124C160.404 51.1242 160.242 50.7333 160.242 50.3257V20.1399C160.242 18.5526 161.348 17.4424 162.938 17.4424H167.58C168.458 17.4424 169.19 17.7818 169.669 18.3535C171.324 17.3158 173.329 16.7921 175.656 16.7921C179.054 16.7921 182.236 18.2256 184.616 20.8272C186.997 23.4287 188.287 26.8798 188.287 30.5891C188.287 34.2984 186.983 37.7655 184.616 40.351C182.249 42.9366 179.054 44.3861 175.656 44.3861C173.606 44.3861 171.807 43.9792 170.277 43.1739V50.3257C170.277 50.7333 170.115 51.1242 169.827 51.4124C169.539 51.7006 169.149 51.8625 168.741 51.8625Z" fill="#8577CE"/>
</svg>
