<svg width="12" height="12" viewBox="0 0 12 12" fill="none" xmlns="http://www.w3.org/2000/svg">
<path d="M3.38184 6.096C3.02984 6.096 2.68851 6.02933 2.35784 5.896C2.03251 5.76267 1.74451 5.57333 1.49384 5.328L2.03784 4.696C2.22451 4.872 2.43784 5.016 2.67784 5.128C2.91784 5.23467 3.15784 5.288 3.39784 5.288C3.69651 5.288 3.92318 5.22667 4.07784 5.104C4.23251 4.98133 4.30984 4.81867 4.30984 4.616C4.30984 4.39733 4.23251 4.24 4.07784 4.144C3.92851 4.048 3.73651 3.94933 3.50184 3.848L2.78184 3.536C2.61118 3.46133 2.44318 3.36533 2.27784 3.248C2.11784 3.13067 1.98451 2.98133 1.87784 2.8C1.77651 2.61867 1.72584 2.4 1.72584 2.144C1.72584 1.86667 1.80051 1.61867 1.94984 1.4C2.10451 1.176 2.31251 1 2.57384 0.872C2.84051 0.738667 3.14451 0.672 3.48584 0.672C3.78984 0.672 4.08318 0.733333 4.36584 0.856C4.64851 0.973333 4.89118 1.13333 5.09384 1.336L4.62184 1.928C4.45651 1.78933 4.28051 1.68 4.09384 1.6C3.91251 1.52 3.70984 1.48 3.48584 1.48C3.24051 1.48 3.04051 1.536 2.88584 1.648C2.73651 1.75467 2.66184 1.904 2.66184 2.096C2.66184 2.22933 2.69918 2.34133 2.77384 2.432C2.85384 2.51733 2.95784 2.592 3.08584 2.656C3.21384 2.71467 3.34984 2.77333 3.49384 2.832L4.20584 3.128C4.51518 3.26133 4.76851 3.43733 4.96584 3.656C5.16318 3.86933 5.26184 4.16533 5.26184 4.544C5.26184 4.82667 5.18718 5.08533 5.03784 5.32C4.88851 5.55467 4.67251 5.744 4.38984 5.888C4.11251 6.02667 3.77651 6.096 3.38184 6.096ZM8.08522 3.216L7.90122 3.856H9.23722L9.05322 3.216C8.96789 2.93867 8.88522 2.65333 8.80522 2.36C8.73055 2.06667 8.65589 1.776 8.58122 1.488H8.54922C8.47989 1.78133 8.40522 2.07467 8.32522 2.368C8.25055 2.656 8.17055 2.93867 8.08522 3.216ZM6.33322 6L8.03722 0.768H9.12522L10.8292 6H9.85322L9.44522 4.584H7.68522L7.27722 6H6.33322ZM0.955406 12V6.768H2.00341L2.93141 9.328C2.99007 9.49333 3.04607 9.664 3.09941 9.84C3.15807 10.0107 3.21407 10.1813 3.26741 10.352H3.29941C3.35807 10.1813 3.41407 10.0107 3.46741 9.84C3.52074 9.664 3.57407 9.49333 3.62741 9.328L4.53141 6.768H5.58741V12H4.73141V9.608C4.73141 9.44267 4.73674 9.264 4.74741 9.072C4.76341 8.87467 4.77941 8.67733 4.79541 8.48C4.81674 8.28267 4.83541 8.104 4.85141 7.944H4.81941L4.39541 9.16L3.53941 11.512H2.98741L2.12341 9.16L1.70741 7.944H1.67541C1.69141 8.104 1.70741 8.28267 1.72341 8.48C1.74474 8.67733 1.76074 8.87467 1.77141 9.072C1.78741 9.264 1.79541 9.44267 1.79541 9.608V12H0.955406ZM7.71634 12V6.768H9.36434C9.75368 6.768 10.1003 6.81867 10.4043 6.92C10.7083 7.02133 10.9483 7.18933 11.1243 7.424C11.3003 7.65867 11.3883 7.97867 11.3883 8.384C11.3883 8.768 11.3003 9.08533 11.1243 9.336C10.9483 9.58667 10.711 9.77333 10.4123 9.896C10.1137 10.0187 9.77501 10.08 9.39634 10.08H8.64434V12H7.71634ZM8.64434 9.336H9.32434C10.0923 9.336 10.4763 9.01867 10.4763 8.384C10.4763 8.05333 10.375 7.82667 10.1723 7.704C9.97501 7.576 9.68168 7.512 9.29234 7.512H8.64434V9.336Z" fill="#7566D5"/>
</svg>
