<?xml version="1.0" encoding="UTF-8" standalone="no" ?>
<!DOCTYPE svg PUBLIC "-//W3C//DTD SVG 1.1//EN" "http://www.w3.org/Graphics/SVG/1.1/DTD/svg11.dtd">
<svg xmlns="http://www.w3.org/2000/svg" xmlns:xlink="http://www.w3.org/1999/xlink" version="1.1" width="1080" height="1080" viewBox="0 0 1080 1080" xml:space="preserve">
<desc>Created with Fabric.js 5.2.4</desc>
<defs>
</defs>
<rect x="0" y="0" width="100%" height="100%" fill="transparent"></rect>
<g transform="matrix(1 0 0 1 540 540)" id="1633858b-df2f-42e1-9f47-89690bf67d5f"  >
<rect style="stroke: none; stroke-width: 1; stroke-dasharray: none; stroke-linecap: butt; stroke-dashoffset: 0; stroke-linejoin: miter; stroke-miterlimit: 4; fill: rgb(255,255,255); fill-rule: nonzero; opacity: 1; visibility: hidden;" vector-effect="non-scaling-stroke"  x="-540" y="-540" rx="0" ry="0" width="1080" height="1080" />
</g>
<g transform="matrix(1 0 0 1 540 540)" id="d1a62a01-d4d6-4b3f-9bcc-fc9282a0e70a"  >
</g>
<g transform="matrix(10.87 0 0 10.87 540 540)"  >
<path style="stroke: rgb(0,0,0); stroke-width: 0; stroke-dasharray: none; stroke-linecap: butt; stroke-dashoffset: 0; stroke-linejoin: miter; stroke-miterlimit: 4; fill: rgb(117,102,213); fill-rule: nonzero; opacity: 1;" vector-effect="non-scaling-stroke"  transform=" translate(-48.81, -48)" d="M 48.854 0 C 21.839 0 0 22 0 49.217 C 0 70.973 13.993 89.389 33.405 95.907 C 35.832 96.39699999999999 36.721000000000004 94.848 36.721000000000004 93.545 C 36.721000000000004 92.404 36.641000000000005 88.493 36.641000000000005 84.418 C 23.051000000000005 87.352 20.221000000000004 78.551 20.221000000000004 78.551 C 18.037000000000003 72.84700000000001 14.801000000000004 71.381 14.801000000000004 71.381 C 10.353000000000003 68.366 15.125000000000004 68.366 15.125000000000004 68.366 C 20.059000000000005 68.692 22.648000000000003 73.418 22.648000000000003 73.418 C 27.015000000000004 80.914 34.05200000000001 78.796 36.883 77.492 C 37.287000000000006 74.31400000000001 38.582 72.114 39.957 70.89200000000001 C 29.118000000000002 69.751 17.714000000000002 65.51400000000001 17.714000000000002 46.60900000000001 C 17.714000000000002 41.23100000000001 19.654000000000003 36.83100000000001 22.728 33.409000000000006 C 22.243000000000002 32.187000000000005 20.544 27.134000000000007 23.214000000000002 20.371000000000006 C 23.214000000000002 20.371000000000006 27.339000000000002 19.067000000000007 36.64 25.423000000000005 C 40.62208885201989 24.345662604765938 44.72875258963664 23.79761430835893 48.85399999999996 23.793000000000017 C 52.979 23.793000000000006 57.184 24.364000000000008 61.067 25.423000000000005 C 70.369 19.067000000000007 74.494 20.371000000000006 74.494 20.371000000000006 C 77.164 27.134000000000007 75.464 32.187000000000005 74.979 33.409000000000006 C 78.134 36.831 79.994 41.23100000000001 79.994 46.60900000000001 C 79.994 65.51400000000001 68.59 69.66900000000001 57.67 70.89200000000001 C 59.45 72.44000000000001 60.986000000000004 75.373 60.986000000000004 80.01800000000001 C 60.986000000000004 86.61800000000001 60.906000000000006 91.91500000000002 60.906000000000006 93.54400000000001 C 60.906000000000006 94.84800000000001 61.79600000000001 96.397 64.22200000000001 95.90800000000002 C 83.63400000000001 89.38800000000002 97.62700000000001 70.97300000000001 97.62700000000001 49.21700000000001 C 97.707 22 75.788 0 48.854 0 z" stroke-linecap="round" />
</g>
<g transform="matrix(0 0 0 0 0 0)"  >
<g style=""   >
</g>
</g>
</svg>