<svg xmlns="http://www.w3.org/2000/svg" xmlns:xlink="http://www.w3.org/1999/xlink" viewBox="0 0 1660 560"><defs><style>.cls-1{fill:#fff;filter:url(#luminosity-invert-noclip);}.cls-2,.cls-4{fill:#e0e0e0;}.cls-3{mask:url(#mask);}.cls-4{isolation:isolate;}</style><filter id="luminosity-invert-noclip" x="998.96" y="173.82" width="285.57" height="209.74" filterUnits="userSpaceOnUse" color-interpolation-filters="sRGB"><feColorMatrix values="-1 0 0 0 1 0 -1 0 0 1 0 0 -1 0 1 0 0 0 1 0" result="invert"/><feFlood flood-color="#fff" result="bg"/><feBlend in="invert" in2="bg"/></filter><mask id="mask" x="998.96" y="173.82" width="285.57" height="209.74" maskUnits="userSpaceOnUse"><path id="dotmask" class="cls-1" d="M1066.18,377.36h-37.77A29.48,29.48,0,0,1,999,347.92V310.15a29.47,29.47,0,0,1,29.45-29.44h37.77a29.47,29.47,0,0,1,29.44,29.44v37.77A29.48,29.48,0,0,1,1066.18,377.36Z"/></mask></defs><title>logo-dark-mono</title><g id="dark-mono"><g id="lettering"><path id="o" class="cls-2" d="M210.74,398a112.38,112.38,0,0,1-79.66-32.36c-21.24-21-32.93-49.38-32.93-79.85s11.69-58.83,32.93-79.85a114.2,114.2,0,0,1,159.32,0c21.24,21,32.93,49.37,32.93,79.85s-11.69,58.83-32.93,79.85A112.38,112.38,0,0,1,210.74,398Zm0-199.43c-49.12,0-87.59,38.31-87.59,87.22S161.62,373,210.74,373s87.59-38.31,87.59-87.21S259.86,198.55,210.74,198.55Z"/><path id="p" class="cls-2" d="M403.59,458.8a12.5,12.5,0,0,1-12.5-12.5V329.35l21.9,25C424,366.88,439.34,373,459.87,373s39.89-8.77,54.47-24.69c15-16.41,23.3-38.62,23.3-62.52s-8.27-46.11-23.3-62.52c-14.58-15.93-33.92-24.7-54.47-24.7S424,204.66,413,217.22l-21.9,25V203.84H359.44V446.3a12.5,12.5,0,0,1-25,0V200.78c0-12.92,9-21.94,21.94-21.94h37.77c7.15,0,13.1,2.76,17,7.41,13.48-8.44,29.79-12.7,48.73-12.7,27.64,0,53.54,11.65,72.91,32.81s29.86,49.24,29.86,79.41-10.6,58.37-29.86,79.4S487.51,398,459.87,398c-16.68,0-31.32-3.3-43.78-9.85V446.3A12.5,12.5,0,0,1,403.59,458.8Zm-9.22-254.95Zm-38.21,0Zm3.29-3.29Z"/><path id="e" class="cls-2" d="M687.8,398c-33.62,0-62.58-11.21-83.74-32.42-20.31-20.37-31.5-48.71-31.5-79.79,0-30.84,11.32-59.18,31.88-79.79,20.86-20.91,49.92-32.43,81.85-32.43,30.92,0,57.22,8.77,76,25.36,20,17.68,30.65,41.4,30.65,72.39a74.3,74.3,0,0,1-.85,13.7,24.09,24.09,0,0,1-10.23,16,28,28,0,0,1-15.38,4.68H657.87c5.7,9.35,16.14,20.46,28.68,20.46,10.18,0,18.75-2.7,22-5.36l.19-.16c6.62-5.3,12.59-6.38,19.52-6.38h36.26a19.87,19.87,0,0,1,17,9.59,24.31,24.31,0,0,1,1,23.19C765.43,380.83,733.6,398,687.8,398Zm-1.51-199.43c-51.42,0-88.73,36.68-88.73,87.22,0,24.42,8.59,46.48,24.21,62.13C638.13,364.31,661,373,687.8,373c34.88,0,57.38-10.76,70.41-33.78h-30c-2.69,0-2.89.09-3.82.83C712,350.3,692.29,351.1,686.55,351.1c-34.13,0-57.59-29.79-59.3-52.42a121.12,121.12,0,0,1,.43-16H766.51a3,3,0,0,0,.92-.19l.09-1a80,80,0,0,0,.45-8.18c0-23.94-7.46-42.66-22.18-55.64C731.61,205.16,711,198.55,686.29,198.55Z"/><path id="n" class="cls-2" d="M981,383.25a12.5,12.5,0,0,1-12.5-12.5V260.46c0-38.19-18.36-61.91-47.93-61.91-17.81,0-31.21,5.89-38.75,17L859,249.38V203.84H827.31V370.75a12.5,12.5,0,0,1-25,0v-170c0-12.92,9-21.94,21.94-21.94H862A21.93,21.93,0,0,1,878,185.07c11.54-7.52,26.08-11.52,42.62-11.52,21.11,0,39.92,8.5,52.94,23.94s20,37.27,20,63V370.75A12.49,12.49,0,0,1,981,383.25Z"/><g class="cls-3"><path id="m" class="cls-4" d="M1272,383.55a12.5,12.5,0,0,1-12.5-12.5V253.21c0-36.07-15.49-54.36-46-54.36h-.78c-16.15.18-29.11,6.08-40.73,18.52l-11,11.72-8.68-13.49c-7.15-11.11-18.35-16.75-33.28-16.75-19,0-28.85,10.55-33,16.84l-22.92,34.61V204.14h-31.66V329a12.5,12.5,0,0,1-25,0V201.08c0-12.92,9-21.94,22-21.94h37.77a22,22,0,0,1,15.57,5.88,65.46,65.46,0,0,1,37.31-11.17c17.89,0,33.42,5.91,45,16.89,14.29-11.35,30.59-17.42,49.47-16.89,3.13.08,9.38.52,12.5.84,37.07,3.82,58.54,33.67,58.54,78.52V371.05A12.5,12.5,0,0,1,1272,383.55Z"/></g><path id="dot" class="cls-4" d="M1066.18,369.86h-37.77a22,22,0,0,1-22-21.94V310.15a22,22,0,0,1,22-21.94h37.77a22,22,0,0,1,21.94,21.94v37.77A22,22,0,0,1,1066.18,369.86Zm-34.72-25h31.66V313.21h-31.66Z"/><path id="p-2" data-name="p" class="cls-2" d="M1365.32,459.09a12.5,12.5,0,0,1-12.5-12.5V329.64l21.9,25c11,12.56,26.35,18.67,46.88,18.67s39.89-8.77,54.47-24.69c15-16.42,23.3-38.62,23.3-62.53s-8.27-46.11-23.3-62.52c-14.58-15.92-33.92-24.69-54.47-24.69s-35.86,6.1-46.88,18.67l-21.9,25V204.14h-31.65V446.59a12.5,12.5,0,0,1-25,0V201.08c0-12.92,9-21.94,21.94-21.94h37.77c7.14,0,13.1,2.76,17,7.41,13.48-8.44,29.78-12.7,48.73-12.7,27.64,0,53.54,11.65,72.91,32.81s29.86,49.23,29.86,79.4-10.6,58.38-29.86,79.41-45.27,32.81-72.91,32.81c-16.68,0-31.32-3.3-43.78-9.85v58.16A12.49,12.49,0,0,1,1365.32,459.09Z"/></g></g></svg>